<svg width="40" height="39" viewBox="0 0 40 39" fill="none" xmlns="http://www.w3.org/2000/svg">
<path d="M0.602336 26.592L1.06212 21.798L1.24694 18.2824C0.756542 16.9263 -1.35585 10.4054 1.99529 5.50939C3.02768 4.00192 4.5618 2.45759 6.84314 1.42293C9.06779 0.414359 11.9954 -0.0992828 15.8438 0.41039C20.098 0.974489 23.4231 3.20481 25.4085 6.0956C26.5475 7.75388 27.2482 9.63837 27.433 11.5603C37.8782 12.3908 39.8795 17.834 39.6505 23.0021C39.5507 25.2495 39.0132 27.3613 38.5994 28.9867C38.3783 29.8558 38.1957 30.5724 38.16 30.9522C38.3527 34.7983 38.0954 34.7955 37.9202 38.6416L35.1246 36.5218L35.1275 36.5195C34.3751 35.7332 33.9658 35.2694 33.6727 34.9372C33.171 34.3686 33.0604 34.2439 32.2021 33.7098C30.4281 34.9911 28.3243 35.5336 26.1608 35.4866C24.2412 35.4446 22.2745 34.9349 20.462 34.0664C18.6597 33.2018 16.9981 31.9773 15.6765 30.5004C14.0421 28.6732 12.9201 26.4565 12.6712 24.043C10.9545 23.8956 9.2339 23.5214 7.69354 23.0418L7.42255 22.9398C6.20817 24.4455 5.3368 25.3249 3.92457 26.7762L0.332475 29.4034L0.602336 26.592V26.592ZM3.59008 21.9851L3.43133 23.6433L4.39682 22.6501L6.59539 19.9237L8.44813 20.6182C9.84335 21.0519 11.3996 21.3886 12.945 21.5151C14.2326 21.6211 15.5008 21.5825 16.6386 21.3336C20.4813 20.2996 22.8658 18.4026 24.0416 16.2057C24.7781 14.8315 25.0491 13.328 24.9147 11.846C24.7781 10.3431 24.2231 8.8526 23.3126 7.52654C21.7081 5.19134 18.9999 3.38679 15.5155 2.92474C12.1973 2.4848 9.72657 2.90376 7.8863 3.73829C6.10273 4.54674 4.90139 5.75771 4.09181 6.94033C1.22993 11.1209 3.52771 17.1389 3.70346 17.5993C3.70346 17.6344 3.79134 17.8442 3.80834 17.8901C3.73634 19.2298 3.71367 20.6618 3.59008 21.9851V21.9851ZM27.3701 14.1013C27.2023 15.2306 26.8434 16.3418 26.2776 17.398C24.7877 20.1811 21.8828 22.5537 17.294 23.7873L17.2447 23.7975C16.5921 23.9438 15.9163 24.0351 15.2292 24.0793C15.4821 25.8221 16.3415 27.4441 17.565 28.8115C18.662 30.0378 20.0476 31.0577 21.5551 31.7805C23.0523 32.4983 24.6602 32.9189 26.2107 32.9529C28.0765 32.9932 29.8629 32.4705 31.2593 31.221C33.2481 31.4857 33.8859 31.3593 35.5708 33.258L36.14 33.8963L35.6179 31.1818L35.6196 31.0446C35.6264 30.3598 35.8537 29.468 36.1349 28.3608C36.5244 26.8318 37.0301 24.8458 37.1163 22.8933C37.2909 18.965 35.6791 14.8264 27.3701 14.1013V14.1013Z" fill="white"/>
</svg>
