<svg width="37" height="25" viewBox="0 0 37 25" fill="none" xmlns="http://www.w3.org/2000/svg">
<path d="M13.9831 22.6839C13.2998 22.6868 12.7435 22.1346 12.7406 21.4514C12.7382 20.7675 13.2904 20.2112 13.9737 20.2088L35.6264 20.0695C36.3097 20.0671 36.866 20.6187 36.8683 21.3025C36.8713 21.9858 36.3191 22.5421 35.6359 22.5445L13.9831 22.6839V22.6839ZM0.992662 21.8281C0.499548 21.3539 0.484194 20.5691 0.95841 20.076C1.43263 19.5828 2.21747 19.5681 2.71059 20.0423C3.26158 20.5732 3.69977 21.0516 4.04643 21.4301C4.34348 21.7549 3.86513 22.0673 4.17635 21.99C4.19879 21.9846 4.56848 21.5966 5.28541 20.8449C5.87302 20.2283 6.6496 19.4139 7.72972 18.3698C8.22284 17.895 9.0071 17.9104 9.4819 18.4035C9.95612 18.8966 9.94076 19.6815 9.44765 20.1557C8.4189 21.1508 7.65708 21.9492 7.08129 22.5533C6.03483 23.6512 5.49447 24.2169 4.76868 24.3976C3.66079 24.6728 3.19071 24.1591 2.22161 23.0996C1.92102 22.7713 1.5407 22.3561 0.992662 21.8281V21.8281ZM13.9831 13.8793C13.2998 13.8816 12.7435 13.33 12.7406 12.6462C12.7382 11.9629 13.2904 11.4066 13.9737 11.4036L35.6264 11.2643C36.3097 11.2619 36.866 11.8141 36.8683 12.4974C36.8713 13.1806 36.3191 13.7369 35.6359 13.7399L13.9831 13.8793V13.8793ZM0.992662 13.023C0.499548 12.5487 0.484194 11.7645 0.95841 11.2714C1.43263 10.7783 2.21747 10.7629 2.71059 11.2371C3.22024 11.7279 3.64426 12.1855 3.98442 12.5529C4.30863 12.9031 3.89229 13.2161 4.1793 13.1446C4.22477 13.1334 4.61986 12.723 5.38758 11.9251C5.96573 11.3245 6.71574 10.545 7.72972 9.56466C8.22284 9.09044 9.0071 9.1058 9.4819 9.59891C9.95612 10.0914 9.94076 10.8763 9.44765 11.3505C8.47087 12.2954 7.73799 13.0566 7.17401 13.643C6.07794 14.7816 5.51278 15.3681 4.77163 15.5523C3.65016 15.8305 3.16532 15.3078 2.16905 14.2318C1.87909 13.9188 1.51767 13.5285 0.992662 13.023V13.023ZM13.9831 4.70734C13.2998 4.7097 12.7435 4.15812 12.7406 3.47426C12.7382 2.79098 13.2904 2.23468 13.9737 2.23173L35.6264 2.09236C36.3097 2.08999 36.866 2.64216 36.8683 3.32544C36.8713 4.00871 36.3191 4.56501 35.6359 4.56797L13.9831 4.70734V4.70734ZM0.992662 3.85162C0.499548 3.37682 0.484194 2.59256 0.95841 2.09944C1.43263 1.60633 2.21747 1.59097 2.71059 2.06519C3.12811 2.46736 3.46473 2.81402 3.74938 3.10693C4.20824 3.57938 4.01867 3.90773 4.22359 3.85694C4.32458 3.83213 4.77104 3.37386 5.62912 2.49511C6.17125 1.9394 6.8498 1.24373 7.72972 0.392737C8.22284 -0.0814797 9.0071 -0.0661261 9.4819 0.426988C9.95612 0.920102 9.94076 1.70436 9.44765 2.17858C8.59961 2.99945 7.93583 3.67977 7.40551 4.22308C6.22144 5.43608 5.60431 6.06798 4.81592 6.26404C3.64426 6.5546 3.10272 5.99711 1.97298 4.8349C1.70074 4.55497 1.37889 4.22308 0.992662 3.85162V3.85162Z" fill="white"/>
</svg>
