<svg width="43" height="29" viewBox="0 0 43 29" fill="none" xmlns="http://www.w3.org/2000/svg">
<path d="M9.04782 5.37465C10.9104 5.37465 12.5994 6.1152 13.8248 7.31108C15.0591 8.51522 15.8227 10.1788 15.8227 12.0149C15.8227 13.8503 15.0591 15.5139 13.8248 16.7186C13.3022 17.2283 12.6957 17.6553 12.0266 17.9771L12.2923 18.0427L12.3467 18.0627C12.9591 18.2883 13.4681 18.5251 13.9506 18.7909C14.429 19.0543 14.8624 19.3336 15.3372 19.6549L15.4081 19.708C15.8693 20.0748 16.2148 20.4025 16.5024 20.7728C16.8036 21.1596 17.0262 21.5695 17.2306 22.0862C17.367 22.3968 17.4792 22.7004 17.5725 23.0033C17.8075 22.3608 17.9091 22.222 18.3054 21.6769L18.4713 21.4496C18.5575 21.3321 18.6768 21.1826 18.7967 21.0326C18.9526 20.8384 19.1103 20.6411 19.4782 20.0818L19.5562 19.9626L21.29 18.3373L23.918 16.8934L26.3659 16.1759L27.0167 16.1688C25.6235 15.7814 24.3769 15.0503 23.3788 14.0759C21.8475 12.5812 20.9003 10.5178 20.9003 8.24003C20.9003 5.96225 21.8475 3.89826 23.3782 2.40474C24.9007 0.918905 26.9995 0 29.3145 0C31.6295 0 33.7283 0.918905 35.2508 2.40474C36.7815 3.89826 37.7282 5.96225 37.7282 8.24003C37.7282 10.5178 36.7815 12.5812 35.2502 14.0759C34.1246 15.1755 32.6813 15.9645 31.0696 16.3005L31.672 16.343C31.9649 16.3779 32.2201 16.3832 32.474 16.3891C33.1626 16.4039 33.8529 16.4192 34.7075 16.7263C35.1705 16.8551 35.5266 16.9755 35.8732 17.145C36.2559 17.3322 36.5848 17.5555 36.9681 17.8797C37.4282 18.2948 37.9148 18.7531 38.3536 19.1895C38.461 19.3094 38.5839 19.4228 38.7061 19.535C39.0368 19.8397 39.3687 20.145 39.6859 20.6824L40.9219 22.3366L41.0099 22.4464C41.5508 23.0966 41.9028 23.523 41.9932 24.576L42.2052 26.2106L42.3233 28.3349L40.0573 28.4595L39.9404 26.3654L39.7272 24.7626C39.6977 24.4218 39.5252 24.2128 39.2612 23.8933C39.2612 23.8821 39.1266 23.7262 39.1 23.6966L37.825 21.9899L37.7683 21.8884C37.6225 21.6238 37.3951 21.4147 37.1683 21.2063C37.0089 21.0592 36.8482 20.911 36.6858 20.7332L35.4846 19.5976C35.2472 19.3992 35.0636 19.271 34.8781 19.1801C34.6679 19.0779 34.4104 18.994 34.0496 18.8954L33.961 18.8688C33.4354 18.6769 32.9323 18.6657 32.4297 18.6551C32.0854 18.6474 31.7399 18.6397 31.4098 18.6013L28.7842 18.4165L26.706 18.4383L24.8121 18.9935L22.6282 20.1935L21.2912 21.4466C20.9304 21.9893 20.7467 22.2191 20.5654 22.4458C20.5076 22.5179 20.4491 22.5905 20.3056 22.7866L20.145 23.0098C19.8562 23.4079 19.8119 23.4681 19.6076 24.051L18.9497 26.0199L18.3656 28.577L17.0469 28.2799H15.7441V25.3041C15.6768 24.8577 15.6095 24.4508 15.5256 24.1018C15.4353 23.7262 15.3166 23.3577 15.1418 22.975L15.1152 22.9218C14.9912 22.6082 14.8654 22.3714 14.7071 22.1677C14.5435 21.9575 14.3303 21.7555 14.0392 21.5204C13.6164 21.2358 13.2384 20.9913 12.8575 20.7817C12.486 20.5773 12.0927 20.3931 11.6197 20.2165C11.178 20.1072 10.7953 20.0476 10.4126 20.0169C9.96496 19.9815 9.53976 19.9797 9.04782 19.9862H9.01652C8.48325 19.9761 7.95057 20.0328 7.42261 20.1273V20.132C6.84682 20.2348 6.31827 20.3671 5.8104 20.5059C5.48559 20.6293 5.1785 20.8277 4.88145 21.0681C4.53834 21.3445 4.19995 21.6882 3.85861 22.0454L3.81904 22.0856C3.50664 22.3838 3.1966 22.6951 2.93852 23.0205C2.71293 23.3016 2.52868 23.5957 2.42238 23.9004L2.41352 23.927C2.23281 24.4136 2.26293 25.0124 2.29482 25.6478C2.30368 25.8368 2.31371 26.0276 2.31962 26.2963L0.0536573 26.3406C0.050114 26.1923 0.0388934 25.9703 0.0282634 25.7547C-0.0148472 24.886 -0.0561862 24.0663 0.289289 23.1356C0.490078 22.5705 0.798939 22.0691 1.16095 21.612V21.6078C1.48871 21.1939 1.86135 20.8177 2.2334 20.461C2.62317 20.0529 3.01766 19.6561 3.45939 19.2994C3.94129 18.9096 4.46865 18.5807 5.08283 18.3592L5.16728 18.3326C5.52634 18.234 5.8854 18.1389 6.23855 18.0562C5.50272 17.7261 4.83775 17.2708 4.27141 16.718C3.03715 15.5133 2.27356 13.8503 2.27356 12.0149C2.27356 10.1794 3.03774 8.51581 4.27141 7.31108C5.49622 6.1152 7.18639 5.37465 9.04782 5.37465V5.37465ZM12.2427 8.93688C11.4284 8.14199 10.2992 7.65006 9.04782 7.65006C7.79762 7.65006 6.66788 8.14258 5.85351 8.93747C5.04799 9.7235 4.54897 10.8125 4.54897 12.0149C4.54897 13.2172 5.0474 14.3056 5.85292 15.0917C6.66729 15.8871 7.79762 16.3791 9.04782 16.3791C10.2992 16.3791 11.4289 15.8871 12.2433 15.0922C13.0488 14.3056 13.5473 13.2178 13.5473 12.0149C13.5473 10.8119 13.0488 9.7235 12.2427 8.93688ZM33.6687 4.03054C32.5573 2.94628 31.0183 2.27541 29.3145 2.27541C27.6108 2.27541 26.0712 2.94628 24.9603 4.03054C23.8578 5.10654 23.1757 6.59533 23.1757 8.24003C23.1757 9.88472 23.8584 11.3735 24.9603 12.4495C26.0712 13.5344 27.6108 14.2058 29.3145 14.2058C31.0183 14.2058 32.5573 13.5344 33.6687 12.4495C34.7707 11.3735 35.4533 9.88472 35.4533 8.24003C35.4533 6.59533 34.7713 5.10654 33.6687 4.03054V4.03054Z" fill="white"/>
</svg>
