<svg width="38" height="39" viewBox="0 0 38 39" fill="none" xmlns="http://www.w3.org/2000/svg">
<path d="M26.2966 26.371L32.3583 20.4782L11.4447 20.5678L11.4345 17.7689L32.3248 17.6793L26.0619 11.7463L27.9935 9.71558C31.0334 12.5933 34.0755 15.4694 37.1103 18.3528L36.9981 19.2423L37.3155 19.5695L36.9096 19.9623L36.8484 20.459L36.3965 20.4612L27.7349 28.8796L25.7813 26.871L26.2966 26.371V26.371ZM2.3295 2.4679L2.27961 2.55067V3.47194L3.38967 2.36189H2.48824L2.3295 2.4679V2.4679ZM0.94675 1.98431L1.2716 1.44969L2.05907 0.921875H29.6035L30.3156 1.393L30.8208 2.13285L30.8037 10.9379L28.9 10.0569L28.5984 9.59539L27.9566 9.15375V4.07799L27.6675 3.78943H3.99855L3.70715 4.08083V35.0173L3.78425 35.1737L27.8818 35.1743L27.9379 35.1601L27.9566 35.0904V29.7737L28.57 29.4171L28.8773 28.9403L30.8548 27.7662L30.8202 36.7294L30.459 37.7998L29.4658 38.0419H2.03129L1.41107 37.5622L0.8396 36.8643V2.16119L0.94675 1.98431V1.98431ZM2.27961 35.3699V36.3518L2.43042 36.5361L2.51546 36.6018H3.56598L2.78928 36.4045L2.27961 35.3699ZM28.0938 36.6018H29.3144L29.3507 36.5928L29.387 36.4862L29.3915 35.2905L29.1058 36.349L28.0938 36.6018ZM29.3966 33.9854L29.4097 30.5901L29.3966 30.598V33.9854ZM28.2701 2.36189L29.3841 3.47478L29.3858 2.57902L29.2883 2.43559L29.1766 2.36189H28.2701V2.36189Z" fill="white"/>
</svg>
